<svg width="48" height="48" viewBox="0 0 48 48"><path fill="#7d7d7d" d="M40 4H8C5.8 4 4 5.8 4 8v32c0 2.2 1.8 4 4 4h32c2.2 0 4-1.8 4-4V8c0-2.2-1.8-4-4-4zm-4.6 14.7c-.1 9.2-6 15.6-14.8 16-3.6.2-6.3-1-8.6-2.5 2.7.4 6-.6 7.8-2.2-2.6-.3-4.2-1.6-4.9-3.8.8.1 1.6.1 2.3-.1-2.4-.8-4.1-2.3-4.2-5.3.7.3 1.4.6 2.3.6-1.8-1-3.1-4.7-1.6-7.2 2.6 2.9 5.8 5.3 11 5.6-1.3-5.6 6.1-8.6 9.2-4.9 1.3-.3 2.4-.8 3.4-1.3-.4 1.3-1.2 2.2-2.2 2.9 1.1-.1 2.1-.4 2.9-.8-.5 1.2-1.6 2.2-2.6 3z"/><path fill="none" d="M0 0h48v48H0z"/></svg>