<svg xmlns="http://www.w3.org/2000/svg" width="300" height="300" viewBox="0, 0, 300, 300"><path d="M196.802 39.964c-8.656 3.787-10.64 12.803-4.328 19.115 3.066 3.065 5.95 3.606 18.574 3.606 17.673 0 29.575 4.688 38.592 15.148 11 12.443 12.263 16.23 12.263 38.952 0 20.197 0 20.558 4.688 23.263 10.82 6.13 18.035-1.444 20.56-21.64 3.245-26.33-12.444-56.987-36.067-71.053-15.51-9.016-42.018-12.623-54.28-7.393zm-88.724 33.542c-20.198 7.213-39.674 21.1-60.592 43.46-49.592 52.658-46.346 102.79 8.295 129.48 56.806 27.77 133.268 18.574 174.925-21.1 31.198-29.574 27.41-66.723-8.115-79.346-6.312-2.164-8.296-3.787-7.394-5.77 3.246-7.935 4.328-17.132 2.525-22.542-5.59-17.132-25.967-21.1-56.263-10.82l-12.083 4.147 1.082-12.082c1.263-14.246-1.803-22-10.28-26.33-7.032-3.606-20.557-3.245-32.098.903zm50.133 69.79c26.87 7.393 43.28 23.623 43.28 42.918 0 21.46-19.115 40.756-50.132 51.035-16.59 5.41-47.428 6.49-62.576 2.343C60.11 231.478 43.88 215.61 43.88 195.23c0-11.18 4.868-20.918 15.508-30.836 9.918-9.377 17.492-13.886 32.1-18.755 22-7.394 45.624-8.296 66.723-2.345zm-56.805 17.49c-18.213 8.477-27.95 21.46-27.95 37.69 0 14.79 6.49 24.887 20.737 32.46 11 5.952 31.198 5.41 43.46-.9 15.69-8.296 25.97-23.624 25.97-38.592-.182-12.263-11.002-26.87-23.805-32.1-10.28-4.327-27.592-3.606-38.412 1.443zm13.165 33.904c1.262 1.262 2.164 4.328 2.164 7.033 0 9.017-15.148 16.41-21.28 10.28-3.426-3.427-2.524-11.903 1.443-15.87 3.967-3.968 14.246-4.87 17.673-1.443zm85.298-117.758c-8.296 8.296-2.705 18.214 10.46 18.214 11.36 0 16.41 5.77 16.41 18.755 0 8.116.72 10.46 3.967 12.624 9.738 6.853 17.673-.72 17.673-16.77 0-19.657-14.067-34.445-34.084-35.888-9.016-.72-11.18-.18-14.426 3.066z"/></svg>