<svg xmlns="http://www.w3.org/2000/svg" width="32" height="32" viewBox="0 0 32 32"><path fill="#444" d="M26.667 0H5.333C2.388 0 0 2.388 0 5.334v21.332C0 29.612 2.388 32 5.333 32h21.334C29.612 32 32 29.612 32 26.666V5.334C32 2.388 29.612 0 26.667 0zM28 20.253C28 24.533 24.516 28 20.205 28h-8.4C7.494 28 4 24.534 4 20.253V11.75C4.003 7.47 7.496 4 11.804 4h3.933c4.31 0 7.762 3.22 7.762 7.5.055.803.778 1.5 1.602 1.5h1.345c.862 0 1.552.904 1.552 1.76v5.493zM22 20c0 1.1-.9 2-2 2h-8c-1.1 0-2-.9-2-2s.9-2 2-2h8c1.1 0 2 .9 2 2zm-4-8c0 1.1-.9 2-2 2h-4c-1.1 0-2-.9-2-2s.9-2 2-2h4c1.1 0 2 .9 2 2z"/></svg>