<svg xmlns="http://www.w3.org/2000/svg" width="32" height="32" viewBox="0 0 32 32"><path fill="#444" d="M.025 27.177c-.008-.08-.014-.158-.018-.238.004.08.01.158.018.237zm7.347-9.516c2.875.087 4.804-2.896 4.308-6.66S8.45 4.21 5.574 4.125C2.698 4.04.77 6.922 1.266 10.688c.496 3.765 3.23 6.887 6.106 6.973zM32 8V5.334C32 2.4 29.6 0 26.667 0H5.334C2.45 0 .084 2.32.004 5.185 1.828 3.58 4.358 2.238 6.97 2.238h11.163L15.635 4.35h-3.54c2.348.9 3.6 3.63 3.6 6.43 0 2.35-1.308 4.374-3.154 5.812-1.8 1.403-2.142 1.99-2.142 3.184 0 1.018 1.93 2.75 2.938 3.462 2.95 2.08 3.904 4.01 3.904 7.233 0 .514-.064 1.027-.19 1.53h9.617C29.6 32 32 29.604 32 26.668V10h-6v6h-2v-6h-6V8h6V2h2v6h6zM5.81 23.936c.674 0 1.293-.018 1.935-.018-.848-.823-1.52-1.83-1.52-3.074 0-.738.236-1.448.567-2.08-.337.025-.68.032-1.035.032-2.324 0-4.297-.752-5.756-1.995v8.406c1.67-.793 3.654-1.27 5.81-1.27zm-5.703 3.79c-.035-.17-.06-.343-.08-.52.02.177.046.35.08.52zm14.126 2.05c-.47-1.838-2.14-2.75-4.465-4.36-.846-.274-1.778-.435-2.778-.445-2.8-.03-5.41 1.093-6.882 2.763C.606 30.16 2.765 32 5.334 32h8.95c.058-.348.085-.707.085-1.076 0-.392-.05-.775-.138-1.148z"/></svg>